<svg xmlns="http://www.w3.org/2000/svg" viewBox="0 0 60 60" width="60" height="60">
  <defs>
    <linearGradient id="bgGradient" x1="0%" y1="0%" x2="100%" y2="100%">
      <stop offset="0%" style="stop-color:#1e3c72;stop-opacity:1" />
      <stop offset="100%" style="stop-color:#2a5298;stop-opacity:1" />
    </linearGradient>
    
    <linearGradient id="iconGradient" x1="0%" y1="0%" x2="100%" y2="100%">
      <stop offset="0%" style="stop-color:#f39c12;stop-opacity:1" />
      <stop offset="100%" style="stop-color:#e67e22;stop-opacity:1" />
    </linearGradient>
  </defs>
  
  <!-- Fundo circular -->
  <circle cx="30" cy="30" r="28" fill="url(#bgGradient)"/>
  
  <!-- Ãcone de computador minimalista -->
  <g transform="translate(12, 15)">
    <!-- Base do laptop -->
    <rect x="0" y="20" width="24" height="2" rx="1" fill="url(#iconGradient)" opacity="0.9"/>
    
    <!-- Tela do laptop -->
    <rect x="1" y="3" width="22" height="17" rx="2" fill="url(#iconGradient)" opacity="0.95"/>
    
    <!-- Tela interna -->
    <rect x="3" y="5" width="18" height="13" rx="1" fill="#ffffff" opacity="0.95"/>
    
    <!-- Interface minimalista -->
    <rect x="5" y="7" width="14" height="2" rx="1" fill="#1e3c72" opacity="0.8"/>
    <rect x="5" y="10" width="10" height="1" rx="0.5" fill="#2a5298" opacity="0.6"/>
    <rect x="5" y="12" width="12" height="1" rx="0.5" fill="#2a5298" opacity="0.6"/>
    
    <!-- Teclado minimalista -->
    <rect x="3" y="22" width="18" height="6" rx="1" fill="url(#iconGradient)" opacity="0.85"/>
    
    <!-- Teclas em grid simples -->
    <rect x="5" y="24" width="2" height="1" rx="0.3" fill="#ffffff" opacity="0.4"/>
    <rect x="8" y="24" width="2" height="1" rx="0.3" fill="#ffffff" opacity="0.4"/>
    <rect x="11" y="24" width="2" height="1" rx="0.3" fill="#ffffff" opacity="0.4"/>
    <rect x="14" y="24" width="2" height="1" rx="0.3" fill="#ffffff" opacity="0.4"/>
    
    <rect x="5" y="26" width="2" height="1" rx="0.3" fill="#ffffff" opacity="0.4"/>
    <rect x="8" y="26" width="2" height="1" rx="0.3" fill="#ffffff" opacity="0.4"/>
    <rect x="11" y="26" width="2" height="1" rx="0.3" fill="#ffffff" opacity="0.4"/>
    <rect x="14" y="26" width="2" height="1" rx="0.3" fill="#ffffff" opacity="0.4"/>
    
    <!-- Indicador de status -->
    <circle cx="20" cy="7" r="1.5" fill="#27ae60"/>
  </g>
</svg> 